<svg width="57" height="44" viewBox="0 0 57 44" fill="none" xmlns="http://www.w3.org/2000/svg">
<path d="M48.2286 3.88326C44.52 2.18884 40.5815 0.953906 36.4704 0.264648C35.9529 1.15495 35.3779 2.36114 34.9754 3.30888C30.6028 2.67705 26.2617 2.67705 21.9494 3.30888C21.5469 2.36114 20.9432 1.15495 20.4544 0.264648C16.3147 0.953906 12.3761 2.18884 8.69344 3.88326C1.24757 14.854 -0.764843 25.5662 0.241359 36.1348C5.18611 39.7247 9.95843 41.9075 14.6473 43.3435C15.7973 41.7926 16.8322 40.1268 17.7234 38.375C16.0273 37.7432 14.4173 36.9677 12.8649 36.0486C13.2674 35.7616 13.6699 35.4457 14.0436 35.1298C23.4157 39.409 33.5668 39.409 42.8238 35.1298C43.2263 35.4457 43.6 35.7616 44.0025 36.0486C42.45 36.9677 40.8402 37.7432 39.144 38.375C40.0352 40.1268 41.0702 41.7926 42.22 43.3435C46.9061 41.9075 51.7072 39.7247 56.626 36.1348C57.8621 23.9006 54.6682 13.2745 48.2286 3.88326ZM19.0171 29.6156C16.1997 29.6156 13.8998 27.0597 13.8998 23.9293C13.8998 20.7989 16.1422 18.2428 19.0171 18.2428C21.8632 18.2428 24.1917 20.7989 24.1342 23.9293C24.1342 27.0597 21.8632 29.6156 19.0171 29.6156ZM37.9079 29.6156C35.0904 29.6156 32.7876 27.0597 32.7876 23.9293C32.7876 20.7989 35.0329 18.2428 37.9079 18.2428C40.754 18.2428 43.0825 20.7989 43.025 23.9293C43.025 27.0597 40.7827 29.6156 37.9079 29.6156Z" fill="white"/>
</svg>
